<?xml version="1.0" encoding="UTF-8" standalone="no"?>
<!DOCTYPE svg PUBLIC "-//W3C//DTD SVG 1.1//EN"
 "http://www.w3.org/Graphics/SVG/1.1/DTD/svg11.dtd">
<!-- Generated by graphviz version 2.38.0 (20140413.2041)
 -->
<!-- Title: Tree Pages: 1 -->
<svg width="220pt" height="144pt"
 viewBox="0.00 0.00 219.54 144.00" xmlns="http://www.w3.org/2000/svg" xmlns:xlink="http://www.w3.org/1999/xlink">
<g id="graph0" class="graph" transform="scale(1 1) rotate(0) translate(4 140)">
<title>Tree</title>
<polygon fill="white" stroke="none" points="-4,4 -4,-140 215.538,-140 215.538,4 -4,4"/>
<!-- 0 -->
<g id="node1" class="node"><title>0</title>
<path fill="none" stroke="black" d="M143.321,-136.201C143.321,-136.201 67.2171,-136.201 67.2171,-136.201 61.2171,-136.201 55.2171,-130.201 55.2171,-124.201 55.2171,-124.201 55.2171,-89.3986 55.2171,-89.3986 55.2171,-83.3986 61.2171,-77.3986 67.2171,-77.3986 67.2171,-77.3986 143.321,-77.3986 143.321,-77.3986 149.321,-77.3986 155.321,-83.3986 155.321,-89.3986 155.321,-89.3986 155.321,-124.201 155.321,-124.201 155.321,-130.201 149.321,-136.201 143.321,-136.201"/>
<text text-anchor="middle" x="105.269" y="-119.4" font-family="Helvetica,sans-Serif" font-size="14.00">X[0] &lt;= 145.0</text>
<text text-anchor="middle" x="105.269" y="-102.6" font-family="Helvetica,sans-Serif" font-size="14.00">samples = 4</text>
<text text-anchor="middle" x="105.269" y="-85.8" font-family="Helvetica,sans-Serif" font-size="14.00">value = [2, 2]</text>
</g>
<!-- 1 -->
<g id="node2" class="node"><title>1</title>
<path fill="#e58139" stroke="black" d="M84.3078,-41.4019C84.3078,-41.4019 12.23,-41.4019 12.23,-41.4019 6.23,-41.4019 0.229999,-35.4019 0.229999,-29.4019 0.229999,-29.4019 0.229999,-12.1981 0.229999,-12.1981 0.229999,-6.1981 6.23,-0.198095 12.23,-0.198095 12.23,-0.198095 84.3078,-0.198095 84.3078,-0.198095 90.3078,-0.198095 96.3078,-6.1981 96.3078,-12.1981 96.3078,-12.1981 96.3078,-29.4019 96.3078,-29.4019 96.3078,-35.4019 90.3078,-41.4019 84.3078,-41.4019"/>
<text text-anchor="middle" x="48.2689" y="-25" font-family="Helvetica,sans-Serif" font-size="14.00">samples = 2</text>
<text text-anchor="middle" x="48.2689" y="-8.2" font-family="Helvetica,sans-Serif" font-size="14.00">value = [2, 0]</text>
</g>
<!-- 0&#45;&gt;1 -->
<g id="edge1" class="edge"><title>0&#45;&gt;1</title>
<path fill="none" stroke="black" d="M85.9713,-77.3614C79.964,-68.5086 73.3457,-58.7553 67.3531,-49.9241"/>
<polygon fill="black" stroke="black" points="70.1261,-47.7773 61.6149,-41.4677 64.3338,-51.7078 70.1261,-47.7773"/>
<text text-anchor="middle" x="56.9131" y="-61.8216" font-family="Helvetica,sans-Serif" font-size="14.00">True</text>
</g>
<!-- 2 -->
<g id="node3" class="node"><title>2</title>
<path fill="#399de5" stroke="black" d="M199.308,-41.4019C199.308,-41.4019 127.23,-41.4019 127.23,-41.4019 121.23,-41.4019 115.23,-35.4019 115.23,-29.4019 115.23,-29.4019 115.23,-12.1981 115.23,-12.1981 115.23,-6.1981 121.23,-0.198095 127.23,-0.198095 127.23,-0.198095 199.308,-0.198095 199.308,-0.198095 205.308,-0.198095 211.308,-6.1981 211.308,-12.1981 211.308,-12.1981 211.308,-29.4019 211.308,-29.4019 211.308,-35.4019 205.308,-41.4019 199.308,-41.4019"/>
<text text-anchor="middle" x="163.269" y="-25" font-family="Helvetica,sans-Serif" font-size="14.00">samples = 2</text>
<text text-anchor="middle" x="163.269" y="-8.2" font-family="Helvetica,sans-Serif" font-size="14.00">value = [0, 2]</text>
</g>
<!-- 0&#45;&gt;2 -->
<g id="edge2" class="edge"><title>0&#45;&gt;2</title>
<path fill="none" stroke="black" d="M124.905,-77.3614C131.018,-68.5086 137.752,-58.7553 143.85,-49.9241"/>
<polygon fill="black" stroke="black" points="146.887,-51.6854 149.689,-41.4677 141.127,-47.7081 146.887,-51.6854"/>
<text text-anchor="middle" x="154.191" y="-61.8589" font-family="Helvetica,sans-Serif" font-size="14.00">False</text>
</g>
</g>
</svg>
